<mxfile host="app.diagrams.net" agent="Mozilla/5.0 (Macintosh; Intel Mac OS X 10_15_7) AppleWebKit/537.36 (KHTML, like Gecko) Chrome/129.0.0.0 Safari/537.36" version="24.7.16" pages="2">
  <diagram name="Page-1" id="7PugVWRnzt0f8nP_BHHg">
    <mxGraphModel dx="1113" dy="673" grid="0" gridSize="10" guides="1" tooltips="1" connect="1" arrows="1" fold="1" page="1" pageScale="1" pageWidth="827" pageHeight="1169" math="0" shadow="0">
      <root>
        <mxCell id="0" />
        <mxCell id="1" parent="0" />
        <mxCell id="V8e5j26qe8Jkd01jSO8S-1" value="Engage" style="shape=umlLifeline;perimeter=lifelinePerimeter;whiteSpace=wrap;html=1;container=1;dropTarget=0;collapsible=0;recursiveResize=0;outlineConnect=0;portConstraint=eastwest;newEdgeStyle={&quot;edgeStyle&quot;:&quot;elbowEdgeStyle&quot;,&quot;elbow&quot;:&quot;vertical&quot;,&quot;curved&quot;:0,&quot;rounded&quot;:0};fillColor=#dae8fc;strokeColor=#6c8ebf;" parent="1" vertex="1">
          <mxGeometry x="278" y="210" width="100" height="300" as="geometry" />
        </mxCell>
        <mxCell id="V8e5j26qe8Jkd01jSO8S-2" value="Mulesoft" style="shape=umlLifeline;perimeter=lifelinePerimeter;whiteSpace=wrap;html=1;container=1;dropTarget=0;collapsible=0;recursiveResize=0;outlineConnect=0;portConstraint=eastwest;newEdgeStyle={&quot;edgeStyle&quot;:&quot;elbowEdgeStyle&quot;,&quot;elbow&quot;:&quot;vertical&quot;,&quot;curved&quot;:0,&quot;rounded&quot;:0};fillColor=#dae8fc;strokeColor=#6c8ebf;" parent="1" vertex="1">
          <mxGeometry x="420" y="210" width="100" height="300" as="geometry" />
        </mxCell>
        <mxCell id="V8e5j26qe8Jkd01jSO8S-15" value="" style="html=1;points=[[0,0,0,0,5],[0,1,0,0,-5],[1,0,0,0,5],[1,1,0,0,-5]];perimeter=orthogonalPerimeter;outlineConnect=0;targetShapes=umlLifeline;portConstraint=eastwest;newEdgeStyle={&quot;curved&quot;:0,&quot;rounded&quot;:0};" parent="V8e5j26qe8Jkd01jSO8S-2" vertex="1">
          <mxGeometry x="45" y="70" width="10" height="100" as="geometry" />
        </mxCell>
        <mxCell id="V8e5j26qe8Jkd01jSO8S-3" value="LEO" style="shape=umlLifeline;perimeter=lifelinePerimeter;whiteSpace=wrap;html=1;container=1;dropTarget=0;collapsible=0;recursiveResize=0;outlineConnect=0;portConstraint=eastwest;newEdgeStyle={&quot;edgeStyle&quot;:&quot;elbowEdgeStyle&quot;,&quot;elbow&quot;:&quot;vertical&quot;,&quot;curved&quot;:0,&quot;rounded&quot;:0};fillColor=#dae8fc;strokeColor=#6c8ebf;" parent="1" vertex="1">
          <mxGeometry x="561" y="210" width="100" height="300" as="geometry" />
        </mxCell>
        <mxCell id="gYXiLXqDFFYWEIb_7XLL-11" value="" style="html=1;points=[[0,0,0,0,5],[0,1,0,0,-5],[1,0,0,0,5],[1,1,0,0,-5]];perimeter=orthogonalPerimeter;outlineConnect=0;targetShapes=umlLifeline;portConstraint=eastwest;newEdgeStyle={&quot;curved&quot;:0,&quot;rounded&quot;:0};" vertex="1" parent="V8e5j26qe8Jkd01jSO8S-3">
          <mxGeometry x="45" y="70" width="10" height="100" as="geometry" />
        </mxCell>
        <mxCell id="V8e5j26qe8Jkd01jSO8S-16" value="Meeting approved" style="html=1;verticalAlign=bottom;endArrow=open;curved=0;rounded=0;entryX=0;entryY=0;entryDx=0;entryDy=5;endFill=0;" parent="1" source="V8e5j26qe8Jkd01jSO8S-1" target="V8e5j26qe8Jkd01jSO8S-15" edge="1">
          <mxGeometry relative="1" as="geometry">
            <mxPoint x="394" y="285" as="sourcePoint" />
          </mxGeometry>
        </mxCell>
        <mxCell id="V8e5j26qe8Jkd01jSO8S-20" value="Initiate PO generation" style="html=1;verticalAlign=bottom;endArrow=block;curved=0;rounded=0;" parent="1" target="V8e5j26qe8Jkd01jSO8S-3" edge="1">
          <mxGeometry relative="1" as="geometry">
            <mxPoint x="480" y="300" as="sourcePoint" />
            <mxPoint x="600" y="300" as="targetPoint" />
          </mxGeometry>
        </mxCell>
        <mxCell id="V8e5j26qe8Jkd01jSO8S-21" value="return" style="html=1;verticalAlign=bottom;endArrow=open;dashed=1;endSize=8;curved=0;rounded=0;" parent="1" edge="1">
          <mxGeometry relative="1" as="geometry">
            <mxPoint x="610.5" y="340" as="sourcePoint" />
            <mxPoint x="469.5" y="340" as="targetPoint" />
          </mxGeometry>
        </mxCell>
        <mxCell id="V8e5j26qe8Jkd01jSO8S-22" value="returns PO info" style="html=1;verticalAlign=bottom;endArrow=open;dashed=1;endSize=8;curved=0;rounded=0;" parent="1" target="V8e5j26qe8Jkd01jSO8S-1" edge="1">
          <mxGeometry relative="1" as="geometry">
            <mxPoint x="471" y="359.5" as="sourcePoint" />
            <mxPoint x="340" y="360" as="targetPoint" />
          </mxGeometry>
        </mxCell>
        <mxCell id="gYXiLXqDFFYWEIb_7XLL-1" value="Engage" style="shape=umlLifeline;perimeter=lifelinePerimeter;whiteSpace=wrap;html=1;container=1;dropTarget=0;collapsible=0;recursiveResize=0;outlineConnect=0;portConstraint=eastwest;newEdgeStyle={&quot;edgeStyle&quot;:&quot;elbowEdgeStyle&quot;,&quot;elbow&quot;:&quot;vertical&quot;,&quot;curved&quot;:0,&quot;rounded&quot;:0};fillColor=#dae8fc;strokeColor=#6c8ebf;" vertex="1" parent="1">
          <mxGeometry x="279" y="650" width="100" height="360" as="geometry" />
        </mxCell>
        <mxCell id="gYXiLXqDFFYWEIb_7XLL-2" value="Mulesoft" style="shape=umlLifeline;perimeter=lifelinePerimeter;whiteSpace=wrap;html=1;container=1;dropTarget=0;collapsible=0;recursiveResize=0;outlineConnect=0;portConstraint=eastwest;newEdgeStyle={&quot;edgeStyle&quot;:&quot;elbowEdgeStyle&quot;,&quot;elbow&quot;:&quot;vertical&quot;,&quot;curved&quot;:0,&quot;rounded&quot;:0};fillColor=#dae8fc;strokeColor=#6c8ebf;" vertex="1" parent="1">
          <mxGeometry x="421" y="650" width="100" height="360" as="geometry" />
        </mxCell>
        <mxCell id="gYXiLXqDFFYWEIb_7XLL-3" value="" style="html=1;points=[[0,0,0,0,5],[0,1,0,0,-5],[1,0,0,0,5],[1,1,0,0,-5]];perimeter=orthogonalPerimeter;outlineConnect=0;targetShapes=umlLifeline;portConstraint=eastwest;newEdgeStyle={&quot;curved&quot;:0,&quot;rounded&quot;:0};" vertex="1" parent="gYXiLXqDFFYWEIb_7XLL-2">
          <mxGeometry x="45" y="70" width="10" height="290" as="geometry" />
        </mxCell>
        <mxCell id="gYXiLXqDFFYWEIb_7XLL-4" value="LEO" style="shape=umlLifeline;perimeter=lifelinePerimeter;whiteSpace=wrap;html=1;container=1;dropTarget=0;collapsible=0;recursiveResize=0;outlineConnect=0;portConstraint=eastwest;newEdgeStyle={&quot;edgeStyle&quot;:&quot;elbowEdgeStyle&quot;,&quot;elbow&quot;:&quot;vertical&quot;,&quot;curved&quot;:0,&quot;rounded&quot;:0};fillColor=#dae8fc;strokeColor=#6c8ebf;" vertex="1" parent="1">
          <mxGeometry x="600" y="650" width="100" height="340" as="geometry" />
        </mxCell>
        <mxCell id="gYXiLXqDFFYWEIb_7XLL-12" value="" style="html=1;points=[[0,0,0,0,5],[0,1,0,0,-5],[1,0,0,0,5],[1,1,0,0,-5]];perimeter=orthogonalPerimeter;outlineConnect=0;targetShapes=umlLifeline;portConstraint=eastwest;newEdgeStyle={&quot;curved&quot;:0,&quot;rounded&quot;:0};" vertex="1" parent="gYXiLXqDFFYWEIb_7XLL-4">
          <mxGeometry x="45" y="70" width="10" height="270" as="geometry" />
        </mxCell>
        <mxCell id="gYXiLXqDFFYWEIb_7XLL-6" value="Do you have pmt details?" style="html=1;verticalAlign=bottom;endArrow=block;curved=0;rounded=0;" edge="1" target="gYXiLXqDFFYWEIb_7XLL-4" parent="1">
          <mxGeometry relative="1" as="geometry">
            <mxPoint x="481" y="740" as="sourcePoint" />
            <mxPoint x="601" y="740" as="targetPoint" />
          </mxGeometry>
        </mxCell>
        <mxCell id="gYXiLXqDFFYWEIb_7XLL-7" value="return (no)" style="html=1;verticalAlign=bottom;endArrow=open;dashed=1;endSize=8;curved=0;rounded=0;" edge="1" parent="1" source="gYXiLXqDFFYWEIb_7XLL-4">
          <mxGeometry x="0.0071" relative="1" as="geometry">
            <mxPoint x="611.5" y="780" as="sourcePoint" />
            <mxPoint x="470.5" y="780" as="targetPoint" />
            <mxPoint as="offset" />
          </mxGeometry>
        </mxCell>
        <mxCell id="gYXiLXqDFFYWEIb_7XLL-15" value="Do you have pmt details?" style="html=1;verticalAlign=bottom;endArrow=block;curved=0;rounded=0;" edge="1" parent="1">
          <mxGeometry relative="1" as="geometry">
            <mxPoint x="480" y="815" as="sourcePoint" />
            <mxPoint x="649" y="815" as="targetPoint" />
          </mxGeometry>
        </mxCell>
        <mxCell id="gYXiLXqDFFYWEIb_7XLL-16" value="return (no)" style="html=1;verticalAlign=bottom;endArrow=open;dashed=1;endSize=8;curved=0;rounded=0;" edge="1" parent="1">
          <mxGeometry x="0.0028" relative="1" as="geometry">
            <mxPoint x="649" y="855" as="sourcePoint" />
            <mxPoint x="469.5" y="855" as="targetPoint" />
            <mxPoint as="offset" />
          </mxGeometry>
        </mxCell>
        <mxCell id="gYXiLXqDFFYWEIb_7XLL-17" value="Do you have pmt details?" style="html=1;verticalAlign=bottom;endArrow=block;curved=0;rounded=0;" edge="1" parent="1">
          <mxGeometry relative="1" as="geometry">
            <mxPoint x="479" y="895" as="sourcePoint" />
            <mxPoint x="648" y="895" as="targetPoint" />
          </mxGeometry>
        </mxCell>
        <mxCell id="gYXiLXqDFFYWEIb_7XLL-18" value="return (yes)" style="html=1;verticalAlign=bottom;endArrow=open;dashed=1;endSize=8;curved=0;rounded=0;" edge="1" parent="1">
          <mxGeometry x="0.0071" relative="1" as="geometry">
            <mxPoint x="648" y="935" as="sourcePoint" />
            <mxPoint x="468.5" y="935" as="targetPoint" />
            <mxPoint as="offset" />
          </mxGeometry>
        </mxCell>
        <mxCell id="gYXiLXqDFFYWEIb_7XLL-19" value="" style="endArrow=classic;html=1;rounded=0;" edge="1" parent="1">
          <mxGeometry width="50" height="50" relative="1" as="geometry">
            <mxPoint x="466" y="980" as="sourcePoint" />
            <mxPoint x="328.5" y="980" as="targetPoint" />
          </mxGeometry>
        </mxCell>
        <mxCell id="gYXiLXqDFFYWEIb_7XLL-20" value="Update Engage" style="edgeLabel;html=1;align=center;verticalAlign=middle;resizable=0;points=[];" vertex="1" connectable="0" parent="gYXiLXqDFFYWEIb_7XLL-19">
          <mxGeometry x="0.0327" y="1" relative="1" as="geometry">
            <mxPoint y="-10" as="offset" />
          </mxGeometry>
        </mxCell>
      </root>
    </mxGraphModel>
  </diagram>
  <diagram id="T4DLkbqbIfTTdNao_Ekx" name="Page-2">
    <mxGraphModel dx="1320" dy="654" grid="1" gridSize="10" guides="1" tooltips="1" connect="1" arrows="1" fold="1" page="1" pageScale="1" pageWidth="827" pageHeight="1169" math="0" shadow="0">
      <root>
        <mxCell id="0" />
        <mxCell id="1" parent="0" />
        <mxCell id="ht9QstNnntwHw4qNogS6-10" value="Engage" style="rounded=0;whiteSpace=wrap;html=1;fillColor=#dae8fc;strokeColor=#6c8ebf;" vertex="1" parent="1">
          <mxGeometry x="160" y="220" width="120" height="60" as="geometry" />
        </mxCell>
        <mxCell id="ht9QstNnntwHw4qNogS6-11" value="Sanofi / Opella&amp;nbsp;&lt;div&gt;Middleware&lt;/div&gt;" style="rounded=0;whiteSpace=wrap;html=1;fillColor=#e1d5e7;strokeColor=#9673a6;" vertex="1" parent="1">
          <mxGeometry x="320" y="220" width="120" height="60" as="geometry" />
        </mxCell>
        <mxCell id="ht9QstNnntwHw4qNogS6-12" value="&lt;span style=&quot;caret-color: rgb(33, 33, 33); color: rgb(33, 33, 33); font-family: Aptos, sans-serif; font-size: 14.6667px; text-align: start;&quot;&gt;SAP Unity&lt;/span&gt;&amp;nbsp;" style="rounded=0;whiteSpace=wrap;html=1;fillColor=#ffe6cc;strokeColor=#d79b00;" vertex="1" parent="1">
          <mxGeometry x="520" y="140" width="120" height="60" as="geometry" />
        </mxCell>
        <mxCell id="ht9QstNnntwHw4qNogS6-13" value="&lt;span style=&quot;caret-color: rgb(33, 33, 33); color: rgb(33, 33, 33); font-family: Aptos, sans-serif; font-size: 14.6667px; text-align: start;&quot;&gt;SAP CEP&lt;/span&gt;" style="rounded=0;whiteSpace=wrap;html=1;fillColor=#ffe6cc;strokeColor=#d79b00;" vertex="1" parent="1">
          <mxGeometry x="520" y="220" width="120" height="60" as="geometry" />
        </mxCell>
        <mxCell id="ht9QstNnntwHw4qNogS6-14" value="&lt;span style=&quot;caret-color: rgb(33, 33, 33); color: rgb(33, 33, 33); font-family: Aptos, sans-serif; font-size: 14.6667px; text-align: start;&quot;&gt;Polaris&lt;/span&gt;" style="rounded=0;whiteSpace=wrap;html=1;fillColor=#ffe6cc;strokeColor=#d79b00;" vertex="1" parent="1">
          <mxGeometry x="520" y="300" width="120" height="60" as="geometry" />
        </mxCell>
        <mxCell id="ht9QstNnntwHw4qNogS6-15" value="" style="endArrow=none;html=1;rounded=0;entryX=-0.008;entryY=0.4;entryDx=0;entryDy=0;entryPerimeter=0;exitX=1;exitY=0.5;exitDx=0;exitDy=0;" edge="1" parent="1" source="ht9QstNnntwHw4qNogS6-11" target="ht9QstNnntwHw4qNogS6-12">
          <mxGeometry width="50" height="50" relative="1" as="geometry">
            <mxPoint x="390" y="390" as="sourcePoint" />
            <mxPoint x="440" y="340" as="targetPoint" />
          </mxGeometry>
        </mxCell>
        <mxCell id="ht9QstNnntwHw4qNogS6-16" value="" style="endArrow=none;html=1;rounded=0;entryX=0;entryY=0.5;entryDx=0;entryDy=0;" edge="1" parent="1" target="ht9QstNnntwHw4qNogS6-13">
          <mxGeometry width="50" height="50" relative="1" as="geometry">
            <mxPoint x="440" y="250" as="sourcePoint" />
            <mxPoint x="529" y="174" as="targetPoint" />
          </mxGeometry>
        </mxCell>
        <mxCell id="ht9QstNnntwHw4qNogS6-17" value="" style="endArrow=none;html=1;rounded=0;entryX=0;entryY=0.5;entryDx=0;entryDy=0;exitX=1;exitY=0.5;exitDx=0;exitDy=0;" edge="1" parent="1" source="ht9QstNnntwHw4qNogS6-11" target="ht9QstNnntwHw4qNogS6-14">
          <mxGeometry width="50" height="50" relative="1" as="geometry">
            <mxPoint x="450" y="260" as="sourcePoint" />
            <mxPoint x="530" y="260" as="targetPoint" />
          </mxGeometry>
        </mxCell>
        <mxCell id="ht9QstNnntwHw4qNogS6-18" value="" style="endArrow=none;html=1;rounded=0;exitX=1;exitY=0.5;exitDx=0;exitDy=0;" edge="1" parent="1" source="ht9QstNnntwHw4qNogS6-10" target="ht9QstNnntwHw4qNogS6-11">
          <mxGeometry width="50" height="50" relative="1" as="geometry">
            <mxPoint x="390" y="390" as="sourcePoint" />
            <mxPoint x="440" y="340" as="targetPoint" />
          </mxGeometry>
        </mxCell>
      </root>
    </mxGraphModel>
  </diagram>
</mxfile>
